<svg xmlns="http://www.w3.org/2000/svg" width="226" height="86"><g fill="#39252a" fill-rule="evenodd"><path d="M119.543 49.783h1.374l-.633 2.243c-.847 2.939-2.17 5.071-4.604 5.071-2.378 0-3.752-2.561-3.172-7.263 0 0-2.327 7.69-8.67 7.69-3.807 0-6.768-3.684-6.768-8.597 0-7.264 6.187-16.234 13.64-16.234 4.28 0 4.918 2.295 6.504 2.295.849 0 1.323-1.761 2.222-4.165h1.321s-1.113 2.724-2.063 7.158l-3.329 15.593c-.318 1.441.107 1.974.846 1.974 1.269 0 2.114-1.335 2.745-3.629l.585-2.136zm-5.396-10.575c.688-3.258-.422-5.074-3.382-5.074-5.55 0-8.882 9.823-8.882 16.395 0 3.312 1.27 5.02 3.277 5.02 3.384 0 6.611-4.646 7.878-10.842l1.11-5.498zM5.327 81.09c1.747 0 3.162-1.43 3.162-3.193 0-1.763-1.415-3.196-3.162-3.196-1.746 0-3.159 1.433-3.159 3.196 0 1.763 1.413 3.193 3.159 3.193m215.341 0c1.749 0 3.164-1.43 3.164-3.193 0-1.763-1.415-3.196-3.164-3.196-1.746 0-3.157 1.433-3.157 3.196 0 1.763 1.411 3.193 3.157 3.193"/><path d="M220.943 78.373H3.901v-1.145h217.042v1.145zM0 61.532l.159-1.017h3.384l6.818-35.298H6.926l.211-1.069h29.609l-2.113 10.841h-1.111s.104-.588.104-1.336c0-5.551-2.115-8.383-7.56-8.383h-5.077l-3.331 17.353h2.327c4.389 0 6.449-1.866 7.825-6.354h1.058l-2.645 13.938h-1.004c0-4.433-.846-6.411-5.445-6.411h-2.326L14.223 60.46h3.964l-.158 1.07H0zm164.147-7.28v-1.017h3.915V21.568c-3.49 10.842-7.141 21.897-10.578 32.684h-2.643l-12.159-33.164v26.005c0 4.38 1.53 6.142 3.328 6.142h.583v1.017h-9.09v-1.017h.579c1.798 0 3.331-1.762 3.331-6.142V17.885h-3.91v-1.017h9.358l11.205 31.08 10.097-31.08h9.146v1.017h-3.911v35.35h3.911v1.017h-13.163zm-110.648-7.82l.227-1.082h3.726l8.485-44.211h-3.84l.225-1.142h13.383l-.169 1.082h-3.952l-8.485 44.214h4.077c5.708 0 8.02-2.624 10.733-10.894h1.297l-2.258 12.033H53.5zm156.217 6.294c-1.743 0-2.859-1.443-2.168-4.379l1.323-5.449c1.373-5.55 3.331-9.769 5.709-9.769 1.323 0 2.217 1.281 2.217 4.003 0 6.086-3.115 15.593-7.081 15.593M226 37.774c0-5.234-3.172-8.758-7.194-8.758-6.707 0-9.14 7.796-9.14 7.796.369-5.128-1.801-7.69-4.816-7.69-4.385 0-6.556 2.989-7.558 6.41l-.632 2.243h1.371l.587-2.136c.632-2.297 1.477-3.63 2.746-3.63.739 0 1.054.532.739 1.973l-7.907 34.284h-2.89l-.198.932h14.737l.198-.932h-2.928l3.43-15.754s1.108 2.086 5.077 2.086c7.982 0 14.379-9.024 14.379-16.822"/></g></svg>